<svg width="27" height="26" viewBox="0 0 27 26" fill="none" xmlns="http://www.w3.org/2000/svg">
<path fill-rule="evenodd" clip-rule="evenodd" d="M13.7914 0C6.54908 0 0.683105 5.86598 0.683105 13.1083C0.683105 18.9088 4.43537 23.808 9.64593 25.5449C10.3013 25.6596 10.5471 25.2663 10.5471 24.9222C10.5471 24.6109 10.5307 23.5786 10.5307 22.4808C7.23727 23.0871 6.38523 21.6779 6.12306 20.9406C5.97559 20.5637 5.33656 19.4003 4.77946 19.089C4.32067 18.8432 3.66525 18.237 4.76307 18.2206C5.79536 18.2042 6.5327 19.1709 6.77848 19.5642C7.95823 21.5468 9.84255 20.9897 10.5963 20.6456C10.711 19.7936 11.0551 19.2201 11.4319 18.8924C8.51533 18.5647 5.46765 17.4341 5.46765 12.4201C5.46765 10.9946 5.97559 9.81487 6.81125 8.89728C6.68017 8.56957 6.22138 7.22597 6.94233 5.42357C6.94233 5.42357 8.04016 5.07948 10.5471 6.76718C11.5958 6.47224 12.71 6.32477 13.8242 6.32477C14.9384 6.32477 16.0526 6.47224 17.1013 6.76718C19.6083 5.06309 20.7061 5.42357 20.7061 5.42357C21.427 7.22597 20.9683 8.56957 20.8372 8.89728C21.6728 9.81487 22.1808 10.9782 22.1808 12.4201C22.1808 17.4505 19.1167 18.5647 16.2001 18.8924C16.6753 19.302 17.0849 20.0885 17.0849 21.3174C17.0849 23.0707 17.0685 24.4798 17.0685 24.9222C17.0685 25.2663 17.3143 25.6759 17.9697 25.5449C20.5719 24.6663 22.8331 22.9939 24.435 20.7629C26.037 18.532 26.899 15.8548 26.8998 13.1083C26.8998 5.86598 21.0338 0 13.7914 0Z" fill="#04E3D4"/>
</svg>
