<svg width="25" height="25" viewBox="0 0 25 25" fill="none" xmlns="http://www.w3.org/2000/svg">
<path fill-rule="evenodd" clip-rule="evenodd" d="M0.0922855 2.10011C0.0922855 1.56762 0.303817 1.05694 0.680345 0.680408C1.05687 0.30388 1.56755 0.0923489 2.10005 0.0923489H22.1143C22.3782 0.0919179 22.6396 0.14354 22.8835 0.24426C23.1274 0.34498 23.349 0.492819 23.5357 0.679314C23.7224 0.865809 23.8705 1.0873 23.9715 1.3311C24.0725 1.5749 24.1244 1.83622 24.1242 2.10011V22.1143C24.1245 22.3783 24.0728 22.6397 23.9719 22.8836C23.8711 23.1275 23.7231 23.3492 23.5366 23.5358C23.35 23.7225 23.1284 23.8706 22.8846 23.9716C22.6407 24.0725 22.3793 24.1244 22.1154 24.1243H2.10005C1.83629 24.1243 1.57512 24.0723 1.33146 23.9714C1.08779 23.8704 0.86641 23.7224 0.679958 23.5358C0.493506 23.3493 0.345639 23.1278 0.244803 22.8841C0.143968 22.6404 0.092142 22.3792 0.0922855 22.1154V2.10011ZM9.60457 9.25507H12.8587V10.8892C13.3284 9.94982 14.53 9.10433 16.3357 9.10433C19.7974 9.10433 20.6178 10.9755 20.6178 14.4088V20.7686H17.1145V15.191C17.1145 13.2356 16.6448 12.1324 15.452 12.1324C13.797 12.1324 13.1089 13.3219 13.1089 15.191V20.7686H9.60457V9.25507ZM3.59658 20.6189H7.10087V9.10433H3.59658V20.6178V20.6189ZM7.60227 5.34879C7.60888 5.64883 7.55548 5.94717 7.44523 6.2263C7.33497 6.50543 7.17008 6.75972 6.96021 6.97426C6.75035 7.1888 6.49975 7.35925 6.22311 7.47562C5.94648 7.592 5.64939 7.65194 5.34927 7.65194C5.04916 7.65194 4.75207 7.592 4.47543 7.47562C4.1988 7.35925 3.9482 7.1888 3.73833 6.97426C3.52847 6.75972 3.36357 6.50543 3.25332 6.2263C3.14306 5.94717 3.08967 5.64883 3.09628 5.34879C3.10925 4.75985 3.35231 4.1994 3.77342 3.78746C4.19452 3.37553 4.76019 3.14486 5.34927 3.14486C5.93836 3.14486 6.50402 3.37553 6.92513 3.78746C7.34624 4.1994 7.5893 4.75985 7.60227 5.34879Z" fill="#04E3D4"/>
</svg>
