<svg width="1530" height="923" viewBox="0 0 1530 923" fill="none" xmlns="http://www.w3.org/2000/svg">
<g opacity="0.04" clip-path="url(#clip0_14_1542)">
<g opacity="0.5">
<path d="M940.28 810.422L836.077 715.431C833.172 712.844 830.994 709.887 829.542 706.191C828.089 702.495 827 698.799 827 694.733C827 690.667 827.726 686.601 829.542 682.905C831.357 679.209 833.535 676.252 836.44 673.665L939.554 582L1019.07 582L892.354 695.102L1019.07 810.792L940.28 810.792L940.28 810.422Z" fill="#D9D9FF"/>
<path d="M1196.22 73.5497L1341.47 206.26C1345.52 209.875 1348.56 214.006 1350.58 219.17C1352.61 224.334 1354.12 229.498 1354.12 235.178C1354.12 240.858 1353.11 246.538 1350.58 251.702C1348.05 256.866 1345.01 260.997 1340.96 264.612L1197.23 392.675H1086.39L1263.02 234.662L1086.39 73.0333L1196.22 73.0333V73.5497Z" fill="#D9D9FF"/>
<path d="M606.721 634.501L436.801 478.346C432.065 474.093 428.513 469.232 426.144 463.156C423.776 457.08 422 451.004 422 444.32C422 437.636 423.184 430.953 426.144 424.877C429.105 418.8 432.657 413.94 437.394 409.686L605.537 259L735.197 259L528.57 444.928L735.197 635.108L606.721 635.108L606.721 634.501Z" fill="#D9D9FF"/>
<path d="M740.817 62.1865L793.479 110.11C794.947 111.415 796.048 112.907 796.782 114.772C797.516 116.637 798.066 118.501 798.066 120.552C798.066 122.604 797.699 124.655 796.782 126.52C795.864 128.384 794.763 129.876 793.295 131.181L741.184 177.427H701L765.038 120.366L701 62H740.817V62.1865Z" fill="#D9D9FF"/>
<path d="M278.04 54.3307L370.674 139.316C373.256 141.631 375.193 144.276 376.484 147.583C377.775 150.89 378.743 154.196 378.743 157.834C378.743 161.471 378.098 165.109 376.484 168.416C374.87 171.723 372.933 174.368 370.351 176.683L278.686 258.692H208L320.645 157.503L208 54L278.04 54V54.3307Z" fill="#D9D9FF"/>
</g>
<path d="M1420 455L1224.21 765H1164L1359.79 455H1420Z" fill="#04E3D4"/>
</g>
<defs>
<clipPath id="clip0_14_1542">
<rect width="1530" height="923" fill="white"/>
</clipPath>
</defs>
</svg>
