<svg width="27" height="27" viewBox="0 0 27 27" fill="none" xmlns="http://www.w3.org/2000/svg">
<path d="M13.4715 8.73703C11.0645 8.73703 9.10028 10.7013 9.10028 13.1083C9.10028 15.5153 11.0645 17.4796 13.4715 17.4796C15.8785 17.4796 17.8427 15.5153 17.8427 13.1083C17.8427 10.7013 15.8785 8.73703 13.4715 8.73703ZM26.5819 13.1083C26.5819 11.2982 26.5983 9.50438 26.4966 7.69749C26.395 5.59874 25.9162 3.7361 24.3815 2.20138C22.8436 0.663393 20.9842 0.187895 18.8855 0.0862371C17.0754 -0.0154211 15.2816 0.000975408 13.4748 0.000975408C11.6646 0.000975408 9.87091 -0.0154211 8.06405 0.0862371C5.96533 0.187895 4.10273 0.666673 2.56804 2.20138C1.03008 3.73938 0.554591 5.59874 0.452935 7.69749C0.351278 9.50766 0.367675 11.3014 0.367675 13.1083C0.367675 14.9152 0.351278 16.7123 0.452935 18.5192C0.554591 20.6179 1.03336 22.4806 2.56804 24.0153C4.10601 25.5533 5.96533 26.0288 8.06405 26.1304C9.87419 26.2321 11.6679 26.2157 13.4748 26.2157C15.2849 26.2157 17.0787 26.2321 18.8855 26.1304C20.9842 26.0288 22.8469 25.55 24.3815 24.0153C25.9195 22.4773 26.395 20.6179 26.4966 18.5192C26.6016 16.7123 26.5819 14.9185 26.5819 13.1083ZM13.4715 19.8342C9.74957 19.8342 6.74579 16.8303 6.74579 13.1083C6.74579 9.38633 9.74957 6.38249 13.4715 6.38249C17.1934 6.38249 20.1972 9.38633 20.1972 13.1083C20.1972 16.8303 17.1934 19.8342 13.4715 19.8342ZM20.4727 7.67781C19.6037 7.67781 18.9019 6.97604 18.9019 6.10703C18.9019 5.23802 19.6037 4.53625 20.4727 4.53625C21.3417 4.53625 22.0434 5.23802 22.0434 6.10703C22.0437 6.31338 22.0032 6.51776 21.9244 6.70845C21.8456 6.89914 21.7299 7.07241 21.584 7.21832C21.438 7.36423 21.2648 7.47993 21.0741 7.55877C20.8834 7.63762 20.679 7.67807 20.4727 7.67781Z" fill="#04E3D4"/>
</svg>
