<svg width="46" height="46" viewBox="0 0 46 46" fill="none" xmlns="http://www.w3.org/2000/svg">
<path d="M0.25 0.25V45.75H45.75V0.25H0.25ZM24.625 35.5938C24.625 40.0229 22.0087 42.1821 18.2215 42.1821C14.8009 42.1821 12.8153 40.4109 11.8078 38.273L15.2894 36.1655C15.9607 37.3569 16.4705 38.3644 17.9361 38.3644C19.1548 38.3644 20.1562 37.8149 20.1562 35.677V21.375H24.625V35.5938ZM34.7152 42.0805C30.7452 42.0805 28.1797 40.289 26.9274 37.8149L30.4141 35.7969C31.3281 37.2939 32.5215 38.2912 34.6289 38.2912C36.4002 38.2912 37.429 37.5072 37.429 36.2854C37.429 34.8198 36.3697 34.3009 34.4146 33.4416L33.3462 32.9826C30.2607 31.6704 28.2152 30.021 28.2152 26.5384C28.2152 23.3321 30.6578 20.9901 34.4755 20.9901C37.1944 20.9901 39.1474 21.8351 40.5541 24.3091L37.2188 26.4531C36.4855 25.1399 35.6953 24.625 34.4705 24.625C33.2182 24.625 32.424 25.4192 32.424 26.4531C32.424 27.7359 33.2182 28.2548 35.0504 29.0491L36.1188 29.5071C39.7537 31.0651 41.8002 32.6555 41.8002 36.2265C41.8012 40.0757 38.7777 42.0805 34.7152 42.0805Z" fill="white"/>
</svg>
