<svg width="193" height="74" viewBox="0 0 193 74" fill="none" xmlns="http://www.w3.org/2000/svg">
<g clip-path="url(#clip0_160_5114)">
<path opacity="0.5" d="M36.5671 73.8805L2.93005 43.1567C1.99243 42.3199 1.28922 41.3635 0.820407 40.168C0.3516 38.9725 -4.46269e-06 37.7771 -4.34772e-06 36.462C-4.23276e-06 35.147 0.234398 33.832 0.820408 32.6365C1.40642 31.441 2.10966 30.4847 3.04728 29.6478L36.3327 5.38549e-06L62 7.62939e-06L21.0964 36.5816L62 74L36.5671 74L36.5671 73.8805Z" fill="#04E3D4"/>
<path d="M14.6493 55.3627C14.6493 55.6493 14.6493 55.9716 14.5418 56.3298C14.4702 56.6521 14.3627 57.0103 14.2195 57.3327C14.0762 57.655 13.8971 57.9774 13.6464 58.2639C13.3957 58.5505 13.1449 58.837 12.7868 59.0519C12.4644 59.3026 12.0704 59.4817 11.6406 59.625C11.2108 59.7682 10.7094 59.8399 10.1721 59.8399H4.47716C4.19062 59.8399 3.86826 59.8399 3.51009 59.7324C3.18774 59.6608 2.82956 59.5533 2.50721 59.4101C2.18485 59.2668 1.8625 59.0877 1.57596 58.837C1.28942 58.5863 1.00288 58.3356 0.78798 57.9774C0.537259 57.655 0.358173 57.261 0.214904 56.8312C0.0716345 56.4014 0 55.9 0 55.3627V41H3.18774V55.3627C3.18774 55.7567 3.29519 56.0791 3.54591 56.294C3.79663 56.5447 4.08317 56.6521 4.47716 56.6521H10.2079C10.6019 56.6521 10.9243 56.5447 11.1392 56.294C11.3541 56.0433 11.4615 55.7567 11.4615 55.3627V51.0647C11.4615 50.6707 11.3541 50.3483 11.1034 50.1334C10.8526 49.9185 10.5661 49.811 10.1721 49.811H4.47716V46.6233H10.2079C10.4945 46.6233 10.8168 46.6233 11.175 46.7308C11.4973 46.8024 11.8555 46.9098 12.1779 47.0531C12.5002 47.1964 12.8226 47.3755 13.1449 47.6262C13.4315 47.8411 13.718 48.1276 13.9329 48.4858C14.1478 48.8082 14.3627 49.2022 14.4702 49.632C14.5776 50.0618 14.6851 50.5632 14.6851 51.1005V55.3985L14.6493 55.3627Z" fill="#1A1A1A"/>
<path d="M30.23 49.7756H23.0665C22.6367 49.7756 22.3143 49.8831 22.0994 50.098C21.8845 50.3129 21.7771 50.6352 21.7771 51.065V59.8403H18.5894V51.065C18.5894 50.5278 18.661 50.0263 18.8043 49.5965C18.9475 49.1667 19.1266 48.7727 19.3773 48.4504C19.5922 48.128 19.8788 47.8415 20.1653 47.5908C20.4519 47.3401 20.7742 47.161 21.0966 47.0177C21.4189 46.8744 21.7771 46.767 22.0994 46.6953C22.4218 46.6237 22.7442 46.5879 23.0665 46.5879H30.2658V49.7756H30.23Z" fill="#1A1A1A"/>
<path d="M48.0311 58.2283C48.0311 58.4432 47.9953 58.6581 47.9236 58.873C47.852 59.0879 47.7446 59.2312 47.6013 59.3745C47.458 59.5177 47.2789 59.6252 47.0998 59.6968C46.9208 59.7684 46.7059 59.8043 46.491 59.8043H39.2917C38.8977 59.8043 38.4679 59.7684 38.0381 59.661C37.6083 59.5894 37.1426 59.4103 36.7128 59.2312C36.283 59.0163 35.8532 58.7656 35.4592 58.479C35.0652 58.1925 34.7071 57.7985 34.3847 57.3687C34.0982 56.9389 33.8475 56.4374 33.6684 55.8644C33.4893 55.2913 33.3818 54.6466 33.3818 53.9302V46.5877H36.5696V53.9302C36.5696 54.36 36.6412 54.7182 36.7845 55.0406C36.9277 55.3629 37.1068 55.6495 37.3576 55.9002C37.6083 56.1509 37.8948 56.33 38.2172 56.4374C38.5395 56.5807 38.8977 56.6165 39.2917 56.6165H44.8792V46.5519H48.0669V58.1925L48.0311 58.2283Z" fill="#1A1A1A"/>
<path d="M66.9425 59.8399H63.7548V52.4973C63.7548 52.0675 63.6832 51.7094 63.5399 51.387C63.3966 51.0646 63.2175 50.7781 62.9668 50.5274C62.7161 50.2767 62.4296 50.0976 62.1072 49.9901C61.7848 49.8469 61.4267 49.811 61.0327 49.811H55.4452V59.8757H52.2574V48.2351C52.2574 48.0202 52.2933 47.8053 52.3649 47.6262C52.4365 47.4471 52.544 47.268 52.7231 47.1248C52.8663 46.9815 53.0454 46.874 53.2245 46.8024C53.4036 46.7308 53.6185 46.6949 53.8334 46.6949H60.9969C61.3909 46.6949 61.8207 46.7308 62.2505 46.8382C62.6803 46.9098 63.1459 47.0889 63.5757 47.268C64.0055 47.4829 64.4353 47.7336 64.8293 48.0202C65.2233 48.3425 65.5815 48.7007 65.868 49.1305C66.1545 49.5603 66.4053 50.0618 66.5844 50.6348C66.7634 51.2079 66.8709 51.8526 66.8709 52.569V59.9115L66.9425 59.8399Z" fill="#1A1A1A"/>
<path d="M85.3884 55.3629C85.3884 55.9002 85.3168 56.4016 85.1735 56.8314C85.0302 57.2612 84.8511 57.6552 84.6362 57.9776C84.4213 58.2999 84.1348 58.5865 83.8483 58.8372C83.5617 59.0521 83.2394 59.267 82.8812 59.4102C82.5588 59.5535 82.2007 59.661 81.8783 59.7326C81.556 59.8042 81.2336 59.8401 80.9112 59.8401H75.1805C74.7507 59.8401 74.2492 59.7684 73.7478 59.6251C73.2463 59.4819 72.7449 59.2312 72.2793 58.873C71.8495 58.5148 71.4555 58.0492 71.1689 57.4761C70.8824 56.903 70.7391 56.2225 70.7391 55.3987V51.1006C70.7391 50.2768 70.8824 49.5963 71.1689 49.0232C71.4555 48.4502 71.8495 47.9845 72.2793 47.6264C72.7091 47.2682 73.2105 47.0175 73.7478 46.8742C74.285 46.7309 74.7507 46.6593 75.1805 46.6593H80.9112C81.735 46.6593 82.4156 46.8026 82.9886 47.0891C83.5617 47.3756 84.0273 47.7696 84.3855 48.1994C84.7437 48.6293 84.9944 49.1307 85.1377 49.668C85.2809 50.2052 85.3884 50.6708 85.3884 51.1365V55.4345V55.3629ZM82.2007 51.0648C82.2007 50.635 82.0932 50.3127 81.8783 50.0978C81.6634 49.8829 81.341 49.7754 80.9112 49.7754H75.1805C74.7507 49.7754 74.4283 49.8829 74.2134 50.0978C73.9985 50.3127 73.8911 50.635 73.8911 51.0648V55.3629C73.8911 55.7927 73.9985 56.1151 74.2134 56.33C74.4283 56.5449 74.7507 56.6523 75.1805 56.6523H80.9112C81.341 56.6523 81.6634 56.5449 81.8783 56.33C82.0932 56.1151 82.2007 55.7927 82.2007 55.3629V51.0648Z" fill="#1A1A1A"/>
<path d="M101.972 61.0935C101.972 61.6307 101.901 62.1322 101.757 62.562C101.614 62.9918 101.435 63.3858 101.22 63.7081C101.005 64.0305 100.719 64.317 100.432 64.5678C100.146 64.8185 99.8232 64.9976 99.465 65.1408C99.1426 65.2841 98.7845 65.3916 98.4621 65.4632C98.1398 65.5348 97.8174 65.5706 97.495 65.5706H91.7643V62.3829H97.495C97.9248 62.3829 98.2472 62.2755 98.4621 62.0606C98.677 61.8456 98.7845 61.5233 98.7845 61.0935V46.5875H101.972V61.0935ZM101.972 43.8654H98.7845V41H101.972V43.8654Z" fill="#1A1A1A"/>
<path d="M119.952 55.4345C119.952 55.8643 119.881 56.3658 119.737 56.8672C119.594 57.3687 119.343 57.8343 118.985 58.2999C118.627 58.7297 118.197 59.0879 117.624 59.4102C117.051 59.6968 116.371 59.8401 115.583 59.8401H109.852C109.422 59.8401 108.921 59.7684 108.419 59.6251C107.918 59.4819 107.452 59.2312 106.986 58.873C106.557 58.5148 106.198 58.085 105.876 57.5119C105.59 56.9389 105.446 56.2583 105.446 55.4703C105.446 55.0405 105.518 54.5391 105.661 54.0377C105.804 53.5362 106.055 53.0348 106.413 52.605C106.772 52.1752 107.201 51.817 107.774 51.4946C108.347 51.2081 109.028 51.0648 109.816 51.0648H115.547V54.1093H109.816C109.386 54.1093 109.064 54.2526 108.813 54.5033C108.562 54.754 108.455 55.1122 108.455 55.5062C108.455 55.936 108.598 56.2583 108.849 56.4732C109.135 56.724 109.458 56.8314 109.816 56.8314H115.547C115.977 56.8314 116.299 56.6881 116.55 56.4374C116.8 56.1867 116.908 55.8643 116.908 55.4703V51.029C116.908 50.5992 116.765 50.2768 116.514 50.0261C116.263 49.7754 115.941 49.668 115.547 49.668H108.562V46.6593H115.547C115.977 46.6593 116.478 46.7309 116.979 46.8742C117.481 47.0175 117.947 47.2682 118.412 47.6264C118.842 47.9845 119.2 48.4143 119.522 48.9874C119.809 49.5605 119.952 50.241 119.952 51.029V55.5062V55.4345Z" fill="#1A1A1A"/>
<path d="M135.68 59.8401H132.56V51.0648C132.56 50.635 132.452 50.3485 132.237 50.0978C132.022 49.8829 131.7 49.7754 131.27 49.7754H127.115V59.8401H123.928V48.1994C123.928 47.9845 123.964 47.7696 124.035 47.5906C124.107 47.4115 124.214 47.2324 124.393 47.0891C124.537 46.9458 124.716 46.8384 124.895 46.7668C125.074 46.6951 125.289 46.6593 125.504 46.6593H131.234C131.664 46.6593 132.166 46.7309 132.667 46.8742C133.169 47.0175 133.67 47.2682 134.1 47.6264V46.6593H138.398C138.684 46.6593 139.007 46.6593 139.365 46.7668C139.687 46.8384 140.046 46.9458 140.368 47.0891C140.69 47.2324 141.013 47.4115 141.335 47.6622C141.621 47.8771 141.908 48.1636 142.123 48.5218C142.338 48.8442 142.553 49.2381 142.66 49.668C142.768 50.0978 142.875 50.5992 142.875 51.1365V59.9117H139.687V51.1365C139.687 50.7067 139.58 50.4201 139.365 50.1694C139.15 49.9545 138.828 49.847 138.398 49.847H135.533C135.64 50.241 135.676 50.6708 135.676 51.1365V59.84L135.68 59.8401Z" fill="#1A1A1A"/>
<path d="M161.536 58.2283C161.536 58.4432 161.5 58.6581 161.428 58.873C161.357 59.0879 161.249 59.2312 161.106 59.3745C160.963 59.5177 160.784 59.6252 160.605 59.6968C160.426 59.7684 160.211 59.8043 159.996 59.8043H152.796C152.402 59.8043 151.973 59.7684 151.543 59.661C151.113 59.5894 150.647 59.4103 150.218 59.2312C149.788 59.0163 149.358 58.7656 148.964 58.479C148.57 58.1925 148.212 57.7985 147.889 57.3687C147.603 56.9389 147.352 56.4374 147.173 55.8644C146.994 55.2913 146.887 54.6466 146.887 53.9302V46.5877H150.074V53.9302C150.074 54.36 150.146 54.7182 150.289 55.0406C150.433 55.3629 150.612 55.6495 150.862 55.9002C151.113 56.1509 151.4 56.33 151.722 56.4374C152.044 56.5807 152.402 56.6165 152.796 56.6165H158.384V46.5519H161.572V58.1925L161.536 58.2283Z" fill="#1A1A1A"/>
<path d="M175.003 49.9904L171.386 51.8171V55.3989C171.386 55.7928 171.493 56.1152 171.744 56.3301C171.995 56.5808 172.281 56.6883 172.639 56.6883H174.072V59.876H172.639C172.353 59.876 172.03 59.876 171.672 59.7686C171.35 59.6969 170.992 59.5895 170.669 59.4462C170.347 59.3029 170.025 59.1239 169.738 58.8731C169.452 58.6224 169.165 58.3717 168.95 58.0135C168.735 57.6912 168.52 57.2972 168.413 56.8674C168.27 56.4376 168.198 55.9361 168.198 55.3989V53.4289L164.974 55.0407V51.6739L168.198 50.0621V41.0361H171.386V48.4503L175.003 46.6594V50.0263V49.9904Z" fill="#1A1A1A"/>
<path d="M192.231 55.4345C192.231 55.8643 192.16 56.3658 192.017 56.8672C191.873 57.3687 191.623 57.8343 191.264 58.2999C190.906 58.7297 190.476 59.0879 189.903 59.4102C189.33 59.6968 188.65 59.8401 187.862 59.8401H182.131C181.701 59.8401 181.2 59.7684 180.698 59.6251C180.197 59.4819 179.731 59.2312 179.266 58.873C178.836 58.5148 178.478 58.085 178.155 57.5119C177.869 56.9389 177.725 56.2583 177.725 55.4703C177.725 55.0405 177.797 54.5391 177.94 54.0377C178.084 53.5362 178.334 53.0348 178.693 52.605C179.051 52.1752 179.481 51.817 180.054 51.4946C180.627 51.2081 181.307 51.0648 182.095 51.0648H187.826V54.1093H182.095C181.665 54.1093 181.343 54.2526 181.092 54.5033C180.842 54.754 180.734 55.1122 180.734 55.5062C180.734 55.936 180.877 56.2583 181.128 56.4732C181.415 56.724 181.737 56.8314 182.095 56.8314H187.826C188.256 56.8314 188.578 56.6881 188.829 56.4374C189.08 56.1867 189.187 55.8643 189.187 55.4703V51.029C189.187 50.5992 189.044 50.2768 188.793 50.0261C188.542 49.7754 188.22 49.668 187.826 49.668H180.842V46.6593H187.826C188.256 46.6593 188.757 46.7309 189.259 46.8742C189.76 47.0175 190.226 47.2682 190.691 47.6264C191.121 47.9845 191.479 48.4143 191.802 48.9874C192.088 49.5605 192.231 50.241 192.231 51.029V55.5062V55.4345Z" fill="#1A1A1A"/>
<path d="M18.7022 25.8661C18.7022 26.2896 18.6353 26.7354 18.4793 27.2035C18.3232 27.6717 18.1003 28.1175 17.766 28.541C17.4316 28.9645 17.0081 29.2989 16.4954 29.5664C15.9827 29.8339 15.3362 29.9676 14.5783 29.9676H1.69412C1.44892 29.9676 1.22601 29.9231 1.02539 29.8339C0.824769 29.7447 0.64644 29.6333 0.490403 29.4772C0.334366 29.3212 0.22291 29.1429 0.133746 28.9423C0.0445821 28.7416 0 28.4964 0 28.2735V12.9596C0 12.7144 0.0445821 12.4915 0.133746 12.2908C0.22291 12.0902 0.334366 11.8896 0.490403 11.7336C0.64644 11.5775 0.824769 11.4661 1.02539 11.3769C1.22601 11.2877 1.47121 11.2432 1.69412 11.2432H13.0626C13.4861 11.2432 13.9319 11.31 14.4 11.4661C14.8681 11.6221 15.3362 11.845 15.7375 12.1794C16.1387 12.5138 16.4954 12.9373 16.7629 13.45C17.0304 13.9627 17.1641 14.6091 17.1641 15.367V16.0134C17.1641 16.6153 17.0749 17.2617 16.8743 17.9528C16.6737 18.6438 16.3616 19.2902 15.9158 19.9144C16.2948 20.1596 16.6514 20.4271 16.9858 20.7614C17.3201 21.0958 17.6099 21.4748 17.8774 21.9206C18.1449 22.3664 18.3232 22.8568 18.4793 23.3918C18.6353 23.9268 18.7022 24.5509 18.7022 25.1974V25.8438V25.8661ZM15.3139 25.2196C15.3139 24.7738 15.2471 24.3726 15.1133 24.0159C14.9796 23.6593 14.779 23.3695 14.5338 23.102C14.2886 22.8345 13.9765 22.6562 13.6198 22.5224C13.2632 22.3887 12.8619 22.3218 12.4161 22.3218H4.7257V18.889H10.8557C11.3016 18.889 11.7028 18.8221 12.0595 18.6884C12.4161 18.5546 12.7282 18.354 12.9734 18.1088C13.2186 17.8636 13.4192 17.5515 13.553 17.1949C13.6867 16.8382 13.7536 16.437 13.7536 15.9912V15.3447C13.7536 14.8543 13.5084 14.6091 13.0403 14.6091H3.36595V26.6017H14.5783C14.5783 26.6017 14.7121 26.6017 14.8013 26.6017C14.8904 26.6017 14.9573 26.5571 15.0465 26.5125C15.1356 26.4679 15.1802 26.4011 15.2248 26.2896C15.2694 26.1782 15.3139 26.0444 15.3139 25.8661V25.2419V25.2196Z" fill="#1D1D1B"/>
<rect x="84.96" y="26.2961" width="3.70372" height="3.70372" fill="#0303FF"/>
<path d="M40.369 17.5515C40.369 18.3317 40.2798 19.0227 40.0792 19.6246C39.8786 20.2265 39.6334 20.7614 39.299 21.2296C38.9646 21.6977 38.5857 22.0989 38.1621 22.4333C37.7386 22.7676 37.2928 23.0351 36.8247 23.258C36.3566 23.4809 35.8885 23.637 35.4203 23.7261C34.9522 23.8153 34.5064 23.8599 34.0829 23.8599L41.1714 29.9899H35.9108L28.8222 23.8599H26.3702V20.4717H34.0606C34.4841 20.4271 34.8854 20.3379 35.2197 20.2042C35.5541 20.0704 35.8662 19.8698 36.1337 19.6246C36.4012 19.3794 36.5795 19.0896 36.7355 18.733C36.8916 18.3763 36.9361 17.9974 36.9361 17.5515V15.4116C36.9361 15.211 36.9138 15.0772 36.8693 14.9658C36.8247 14.8543 36.7578 14.7874 36.6909 14.7429C36.6241 14.6983 36.5349 14.676 36.4457 14.6537C36.3566 14.6314 36.2897 14.6537 36.2228 14.6537H25.0104V29.9899H21.6222V12.9596C21.6222 12.7144 21.6668 12.4915 21.7559 12.2908C21.8451 12.0902 21.9566 11.8896 22.1126 11.7336C22.2686 11.5775 22.447 11.4661 22.6476 11.3769C22.8482 11.2877 23.0934 11.2432 23.3163 11.2432H36.2005C36.9584 11.2432 37.6049 11.3769 38.1176 11.6444C38.6303 11.9119 39.0538 12.2686 39.3882 12.6698C39.7225 13.071 39.9454 13.5391 40.1015 14.0073C40.2575 14.4754 40.3244 14.9435 40.3244 15.3447V17.5069L40.369 17.5515Z" fill="#1D1D1B"/>
<path d="M62.4818 28.541C62.4818 28.7862 62.4372 29.0092 62.348 29.2098C62.2589 29.4104 62.1251 29.5887 61.9914 29.7448C61.8576 29.9008 61.657 30.0123 61.4564 30.1014C61.2558 30.1906 61.0329 30.2352 60.7877 30.2352C60.587 30.2352 60.3641 30.1906 60.1635 30.1237C59.9629 30.0568 59.7623 29.9231 59.6062 29.7448L47.1901 16.7937V29.99H43.8019V12.7144C43.8019 12.3577 43.891 12.0457 44.0917 11.7782C44.2923 11.5107 44.5375 11.2878 44.8496 11.154C45.1393 10.998 45.4737 10.9757 45.8081 11.0203C46.1424 11.0649 46.4322 11.2432 46.6774 11.4884L59.0935 24.4395V11.2655H62.4818V28.541Z" fill="#1D1D1B"/>
<path d="M82.1871 25.2196C82.1871 25.8883 82.0756 26.5347 81.8304 27.1143C81.5852 27.6939 81.2731 28.2066 80.8496 28.6301C80.4261 29.0536 79.9134 29.388 79.3338 29.6332C78.7543 29.8784 78.1078 29.9899 77.4168 29.9899H64.9784V26.6016H77.4168C77.8403 26.6016 78.1524 26.4902 78.3976 26.245C78.6428 25.9998 78.7543 25.6654 78.7543 25.2419V11.2654H82.1871V25.2196Z" fill="#1D1D1B"/>
<path d="M111.085 22.1435C111.085 23.2803 110.885 24.328 110.484 25.2865C110.082 26.245 109.547 27.0698 108.834 27.7608C108.121 28.4518 107.318 28.9868 106.36 29.3881C105.401 29.7893 104.353 29.9676 103.239 29.9676H94.0773C93.8321 29.9676 93.6092 29.9231 93.4086 29.8339C93.208 29.7447 93.0296 29.6333 92.8736 29.4772C92.7175 29.3212 92.6061 29.1429 92.5169 28.9423C92.4278 28.7416 92.3832 28.4964 92.3832 28.2735V12.9596C92.3832 12.7144 92.4278 12.4915 92.5169 12.2908C92.6061 12.0902 92.7175 11.8896 92.8736 11.7336C93.0296 11.5775 93.208 11.4661 93.4086 11.3769C93.6092 11.2877 93.8544 11.2432 94.0773 11.2432H103.239C104.353 11.2432 105.401 11.4438 106.36 11.8227C107.318 12.2017 108.143 12.759 108.834 13.45C109.525 14.141 110.082 14.9658 110.484 15.9243C110.885 16.8828 111.085 17.9305 111.085 19.0673V22.1212V22.1435ZM107.697 19.0896C107.697 18.4209 107.586 17.819 107.385 17.284C107.184 16.7491 106.872 16.2586 106.471 15.8797C106.07 15.5008 105.602 15.1887 105.067 14.9881C104.532 14.7874 103.93 14.676 103.261 14.676H95.7714V26.6017H103.261C103.93 26.6017 104.532 26.4902 105.067 26.2896C105.602 26.089 106.07 25.7769 106.471 25.398C106.872 25.019 107.162 24.5509 107.385 23.9936C107.608 23.4364 107.697 22.8345 107.697 22.1658V19.1119V19.0896Z" fill="#1D1D1B"/>
<path d="M131.348 29.9899H119.088C118.62 29.9899 118.107 29.9008 117.55 29.7447C116.993 29.5887 116.48 29.2989 116.012 28.92C115.544 28.541 115.142 28.0506 114.83 27.4488C114.518 26.8469 114.362 26.1113 114.362 25.2196V12.9596C114.362 12.7144 114.407 12.4915 114.496 12.2908C114.585 12.0902 114.697 11.8896 114.853 11.7336C115.009 11.5775 115.187 11.4661 115.388 11.3769C115.588 11.2877 115.833 11.2432 116.056 11.2432H131.348V14.6537H117.728V25.2196C117.728 25.6655 117.84 25.9998 118.085 26.245C118.33 26.4902 118.664 26.6017 119.11 26.6017H131.326V29.9899H131.348ZM129.81 22.3441H119.088V18.9113H129.81V22.3441Z" fill="#1D1D1B"/>
<path d="M153.371 11.2654L144.499 29.3211C144.366 29.5886 144.143 29.8338 143.875 29.9899C143.608 30.1459 143.296 30.2351 142.961 30.2351C142.627 30.2351 142.337 30.1459 142.07 29.9899C141.802 29.8338 141.579 29.5886 141.446 29.3211L132.596 11.2654H136.408L142.984 24.7515L149.582 11.2654H153.371Z" fill="#1D1D1B"/>
<path d="M172.867 8.83008L157.825 32.6706H153.199L168.241 8.83008H172.867Z" fill="#0303FF"/>
<path opacity="0.5" d="M183.425 11.8585L191.571 19.1525C191.798 19.3512 191.968 19.5782 192.082 19.8621C192.195 20.1459 192.28 20.4297 192.28 20.7419C192.28 21.0541 192.224 21.3663 192.082 21.6501C191.94 21.9339 191.769 22.161 191.542 22.3596L183.482 29.3983H177.266L187.172 20.7135L177.266 11.8301H183.425V11.8585Z" fill="#04E3D4"/>
</g>
<defs>
<clipPath id="clip0_160_5114">
<rect width="193" height="74" fill="white"/>
</clipPath>
</defs>
</svg>
