<svg width="108" height="43" viewBox="0 0 108 43" fill="none" xmlns="http://www.w3.org/2000/svg">
<g clip-path="url(#clip0_160_5498)">
<path opacity="0.5" d="M20.3911 41.9718L1.71975 24.9175C1.19929 24.453 0.808946 23.9221 0.548719 23.2585C0.288492 22.5949 0.0933207 21.9313 0.0933208 21.2014C0.0933208 20.4714 0.223433 19.7415 0.54872 19.0779C0.874006 18.4143 1.26436 17.8834 1.78482 17.4189L20.261 0.961886L34.5085 0.961887L11.8036 21.2677L34.5085 42.0381L20.3911 42.0381L20.3911 41.9718Z" fill="#04E3D4"/>
<path d="M8.22496 31.6928C8.22496 31.8519 8.22496 32.0308 8.16531 32.2296C8.12555 32.4086 8.0659 32.6074 7.98638 32.7863C7.90685 32.9653 7.80744 33.1442 7.66827 33.3032C7.5291 33.4623 7.38993 33.6213 7.19111 33.7406C7.01218 33.8798 6.79348 33.9792 6.5549 34.0587C6.31632 34.1383 6.03798 34.178 5.73976 34.178H2.57858C2.41953 34.178 2.2406 34.178 2.04178 34.1184C1.86285 34.0786 1.66403 34.019 1.4851 33.9394C1.30616 33.8599 1.12723 33.7605 0.968174 33.6213C0.809121 33.4822 0.650069 33.343 0.530779 33.1442C0.391608 32.9653 0.2922 32.7466 0.212673 32.508C0.133147 32.2694 0.0933838 31.9911 0.0933838 31.6928V23.7203H1.86285V31.6928C1.86285 31.9115 1.92249 32.0905 2.06166 32.2097C2.20083 32.3489 2.35989 32.4086 2.57858 32.4086H5.75964C5.97834 32.4086 6.15727 32.3489 6.27656 32.2097C6.39585 32.0706 6.4555 31.9115 6.4555 31.6928V29.307C6.4555 29.0883 6.39585 28.9094 6.25668 28.7901C6.11751 28.6708 5.95846 28.6112 5.73976 28.6112H2.57858V26.8417H5.75964C5.91869 26.8417 6.09763 26.8417 6.29644 26.9014C6.47538 26.9411 6.67419 27.0008 6.85313 27.0803C7.03206 27.1598 7.211 27.2592 7.38993 27.3984C7.54898 27.5177 7.70804 27.6767 7.82733 27.8756C7.94662 28.0545 8.0659 28.2732 8.12555 28.5118C8.18519 28.7504 8.24484 29.0287 8.24484 29.3269V31.7127L8.22496 31.6928Z" fill="#1A1A1A"/>
<path d="M16.8735 28.5915H12.8972C12.6586 28.5915 12.4797 28.6512 12.3604 28.7705C12.2411 28.8898 12.1814 29.0687 12.1814 29.3073V34.1783H10.412V29.3073C10.412 29.0091 10.4518 28.7307 10.5313 28.4921C10.6108 28.2536 10.7102 28.0349 10.8494 27.8559C10.9687 27.677 11.1277 27.5179 11.2868 27.3788C11.4458 27.2396 11.6248 27.1402 11.8037 27.0607C11.9826 26.9811 12.1814 26.9215 12.3604 26.8817C12.5393 26.842 12.7183 26.8221 12.8972 26.8221H16.8934V28.5915H16.8735Z" fill="#1A1A1A"/>
<path d="M26.7547 33.2834C26.7547 33.4027 26.7349 33.522 26.6951 33.6413C26.6553 33.7606 26.5957 33.8401 26.5162 33.9196C26.4366 33.9992 26.3372 34.0588 26.2378 34.0986C26.1384 34.1383 26.0191 34.1582 25.8998 34.1582H21.9036C21.6849 34.1582 21.4464 34.1383 21.2078 34.0787C20.9692 34.0389 20.7107 33.9395 20.4722 33.8401C20.2336 33.7208 19.995 33.5817 19.7763 33.4226C19.5576 33.2636 19.3588 33.0449 19.1799 32.8063C19.0208 32.5677 18.8816 32.2894 18.7822 31.9712C18.6828 31.6531 18.6232 31.2953 18.6232 30.8976V26.8219H20.3926V30.8976C20.3926 31.1362 20.4324 31.335 20.5119 31.514C20.5914 31.6929 20.6909 31.852 20.83 31.9911C20.9692 32.1303 21.1283 32.2297 21.3072 32.2894C21.4861 32.3689 21.6849 32.3888 21.9036 32.3888H25.0052V26.802H26.7746V33.2636L26.7547 33.2834Z" fill="#1A1A1A"/>
<path d="M37.2522 34.178H35.4827V30.1023C35.4827 29.8637 35.4429 29.6649 35.3634 29.486C35.2839 29.3071 35.1845 29.148 35.0453 29.0088C34.9061 28.8697 34.7471 28.7703 34.5681 28.7106C34.3892 28.6311 34.1904 28.6112 33.9717 28.6112H30.8702V34.1979H29.1007V27.7364C29.1007 27.6171 29.1206 27.4978 29.1604 27.3984C29.2001 27.299 29.2598 27.1996 29.3592 27.1201C29.4387 27.0406 29.5381 26.9809 29.6375 26.9411C29.7369 26.9014 29.8562 26.8815 29.9755 26.8815H33.9518C34.1705 26.8815 34.4091 26.9014 34.6477 26.961C34.8863 27.0008 35.1447 27.1002 35.3833 27.1996C35.6219 27.3189 35.8605 27.4581 36.0792 27.6171C36.2978 27.7961 36.4967 27.9949 36.6557 28.2334C36.8148 28.472 36.9539 28.7504 37.0533 29.0685C37.1528 29.3866 37.2124 29.7444 37.2124 30.1421V34.2178L37.2522 34.178Z" fill="#1A1A1A"/>
<path d="M47.4912 31.693C47.4912 31.9912 47.4514 32.2695 47.3719 32.5081C47.2924 32.7467 47.193 32.9654 47.0737 33.1443C46.9544 33.3233 46.7953 33.4823 46.6363 33.6215C46.4772 33.7408 46.2983 33.8601 46.0995 33.9396C45.9205 34.0191 45.7217 34.0788 45.5428 34.1185C45.3639 34.1583 45.1849 34.1782 45.006 34.1782H41.8249C41.5864 34.1782 41.308 34.1384 41.0297 34.0589C40.7513 33.9794 40.473 33.8402 40.2145 33.6414C39.9759 33.4426 39.7573 33.1841 39.5982 32.866C39.4391 32.5479 39.3596 32.1701 39.3596 31.7129V29.3271C39.3596 28.8698 39.4391 28.492 39.5982 28.1739C39.7573 27.8558 39.9759 27.5974 40.2145 27.3986C40.4531 27.1997 40.7314 27.0606 41.0297 26.981C41.3279 26.9015 41.5864 26.8618 41.8249 26.8618H45.006C45.4633 26.8618 45.841 26.9413 46.1591 27.1003C46.4772 27.2594 46.7357 27.4781 46.9345 27.7167C47.1333 27.9552 47.2725 28.2336 47.352 28.5318C47.4315 28.83 47.4912 29.0885 47.4912 29.347V31.7327V31.693ZM45.7217 29.3072C45.7217 29.0686 45.6621 28.8897 45.5428 28.7704C45.4235 28.6511 45.2446 28.5915 45.006 28.5915H41.8249C41.5864 28.5915 41.4074 28.6511 41.2881 28.7704C41.1688 28.8897 41.1092 29.0686 41.1092 29.3072V31.693C41.1092 31.9316 41.1688 32.1105 41.2881 32.2298C41.4074 32.3491 41.5864 32.4087 41.8249 32.4087H45.006C45.2446 32.4087 45.4235 32.3491 45.5428 32.2298C45.6621 32.1105 45.7217 31.9316 45.7217 31.693V29.3072Z" fill="#1A1A1A"/>
<path d="M56.6965 34.8739C56.6965 35.1721 56.6568 35.4504 56.5772 35.689C56.4977 35.9276 56.3983 36.1463 56.279 36.3252C56.1597 36.5042 56.0007 36.6632 55.8416 36.8024C55.6826 36.9416 55.5036 37.041 55.3048 37.1205C55.1259 37.2 54.9271 37.2597 54.7481 37.2994C54.5692 37.3392 54.3903 37.3591 54.2113 37.3591H51.0303V35.5896H54.2113C54.4499 35.5896 54.6288 35.53 54.7481 35.4107C54.8674 35.2914 54.9271 35.1125 54.9271 34.8739V26.8218H56.6965V34.8739ZM56.6965 25.3108H54.9271V23.7203H56.6965V25.3108Z" fill="#1A1A1A"/>
<path d="M66.6769 31.7327C66.6769 31.9713 66.6372 32.2497 66.5576 32.528C66.4781 32.8064 66.3389 33.0648 66.1401 33.3233C65.9413 33.5619 65.7027 33.7607 65.3846 33.9396C65.0665 34.0987 64.6888 34.1782 64.2514 34.1782H61.0703C60.8317 34.1782 60.5534 34.1384 60.2751 34.0589C59.9967 33.9794 59.7382 33.8402 59.4798 33.6414C59.2412 33.4426 59.0424 33.204 58.8635 32.8859C58.7044 32.5678 58.6249 32.19 58.6249 31.7526C58.6249 31.514 58.6646 31.2357 58.7442 30.9574C58.8237 30.679 58.9629 30.4007 59.1617 30.1621C59.3605 29.9235 59.5991 29.7247 59.9172 29.5458C60.2353 29.3867 60.613 29.3072 61.0504 29.3072H64.2315V30.9971H61.0504C60.8119 30.9971 60.6329 31.0767 60.4937 31.2158C60.3546 31.355 60.2949 31.5538 60.2949 31.7725C60.2949 32.0111 60.3745 32.19 60.5136 32.3093C60.6727 32.4485 60.8516 32.5081 61.0504 32.5081H64.2315C64.4701 32.5081 64.649 32.4286 64.7882 32.2894C64.9273 32.1503 64.987 31.9713 64.987 31.7526V29.2873C64.987 29.0487 64.9075 28.8698 64.7683 28.7306C64.6291 28.5915 64.4502 28.5318 64.2315 28.5318H60.3546V26.8618H64.2315C64.4701 26.8618 64.7484 26.9015 65.0268 26.981C65.3051 27.0606 65.5636 27.1997 65.822 27.3986C66.0606 27.5974 66.2594 27.836 66.4383 28.1541C66.5974 28.4722 66.6769 28.8499 66.6769 29.2873V31.7725V31.7327Z" fill="#1A1A1A"/>
<path d="M75.4072 34.1782H73.6751V29.3072C73.6751 29.0686 73.6155 28.9096 73.4962 28.7704C73.3769 28.6511 73.198 28.5915 72.9594 28.5915H70.6531V34.1782H68.8837V27.7167C68.8837 27.5974 68.9036 27.4781 68.9433 27.3787C68.9831 27.2793 69.0427 27.1799 69.1421 27.1003C69.2217 27.0208 69.3211 26.9612 69.4205 26.9214C69.5199 26.8816 69.6392 26.8618 69.7585 26.8618H72.9395C73.1781 26.8618 73.4564 26.9015 73.7348 26.981C74.0131 27.0606 74.2915 27.1997 74.53 27.3986V26.8618H76.9158C77.0749 26.8618 77.2538 26.8618 77.4526 26.9214C77.6316 26.9612 77.8304 27.0208 78.0093 27.1003C78.1883 27.1799 78.3672 27.2793 78.5461 27.4184C78.7052 27.5377 78.8642 27.6968 78.9835 27.8956C79.1028 28.0745 79.2221 28.2932 79.2817 28.5318C79.3414 28.7704 79.401 29.0487 79.401 29.347V34.2179H77.6316V29.347C77.6316 29.1084 77.5719 28.9493 77.4526 28.8102C77.3333 28.6909 77.1544 28.6312 76.9158 28.6312H75.3253C75.385 28.8499 75.4048 29.0885 75.4048 29.347V34.1782L75.4072 34.1782Z" fill="#1A1A1A"/>
<path d="M89.7594 33.2834C89.7594 33.4027 89.7395 33.522 89.6997 33.6413C89.66 33.7606 89.6003 33.8401 89.5208 33.9196C89.4413 33.9992 89.3419 34.0588 89.2425 34.0986C89.1431 34.1383 89.0238 34.1582 88.9045 34.1582H84.9083C84.6896 34.1582 84.451 34.1383 84.2124 34.0787C83.9738 34.0389 83.7154 33.9395 83.4768 33.8401C83.2382 33.7208 82.9996 33.5817 82.7809 33.4226C82.5622 33.2636 82.3634 33.0449 82.1845 32.8063C82.0254 32.5677 81.8863 32.2894 81.7869 31.9712C81.6875 31.6531 81.6278 31.2953 81.6278 30.8976V26.8219H83.3973V30.8976C83.3973 31.1362 83.437 31.335 83.5166 31.514C83.5961 31.6929 83.6955 31.852 83.8347 31.9911C83.9738 32.1303 84.1329 32.2297 84.3118 32.2894C84.4908 32.3689 84.6896 32.3888 84.9083 32.3888H88.0098V26.802H89.7793V33.2636L89.7594 33.2834Z" fill="#1A1A1A"/>
<path d="M97.2349 28.7108L95.2269 29.7247V31.7129C95.2269 31.9316 95.2865 32.1105 95.4257 32.2298C95.5649 32.369 95.7239 32.4286 95.9228 32.4286H96.718V34.1981H95.9228C95.7637 34.1981 95.5848 34.1981 95.3859 34.1384C95.207 34.0987 95.0082 34.039 94.8293 33.9595C94.6503 33.88 94.4714 33.7806 94.3123 33.6414C94.1533 33.5022 93.9942 33.363 93.8749 33.1642C93.7557 32.9853 93.6364 32.7666 93.5767 32.528C93.4972 32.2894 93.4574 32.0111 93.4574 31.7129V30.6194L91.6681 31.5141V29.6452L93.4574 28.7505V23.7404H95.2269V27.8558L97.2349 26.8618V28.7306V28.7108Z" fill="#1A1A1A"/>
<path d="M106.798 31.7327C106.798 31.9713 106.758 32.2497 106.679 32.528C106.599 32.8064 106.46 33.0648 106.261 33.3233C106.062 33.5619 105.824 33.7607 105.506 33.9396C105.188 34.0987 104.81 34.1782 104.372 34.1782H101.191C100.953 34.1782 100.674 34.1384 100.396 34.0589C100.118 33.9794 99.8593 33.8402 99.6009 33.6414C99.3623 33.4426 99.1635 33.204 98.9846 32.8859C98.8255 32.5678 98.746 32.19 98.746 31.7526C98.746 31.514 98.7857 31.2357 98.8653 30.9574C98.9448 30.679 99.084 30.4007 99.2828 30.1621C99.4816 29.9235 99.7202 29.7247 100.038 29.5458C100.356 29.3867 100.734 29.3072 101.172 29.3072H104.353V30.9971H101.172C100.933 30.9971 100.754 31.0767 100.615 31.2158C100.476 31.355 100.416 31.5538 100.416 31.7725C100.416 32.0111 100.496 32.19 100.635 32.3093C100.794 32.4485 100.973 32.5081 101.172 32.5081H104.353C104.591 32.5081 104.77 32.4286 104.909 32.2894C105.048 32.1503 105.108 31.9713 105.108 31.7526V29.2873C105.108 29.0487 105.029 28.8698 104.889 28.7306C104.75 28.5915 104.571 28.5318 104.353 28.5318H100.476V26.8618H104.353C104.591 26.8618 104.87 26.9015 105.148 26.981C105.426 27.0606 105.685 27.1997 105.943 27.3986C106.182 27.5974 106.381 27.836 106.559 28.1541C106.718 28.4722 106.798 28.8499 106.798 29.2873V31.7725V31.7327Z" fill="#1A1A1A"/>
<path d="M10.4747 15.3197C10.4747 15.5548 10.4376 15.8023 10.3509 16.0621C10.2643 16.322 10.1406 16.5694 9.95499 16.8045C9.76939 17.0396 9.53429 17.2252 9.2497 17.3737C8.96512 17.5222 8.60629 17.5964 8.18559 17.5964H1.03376C0.897655 17.5964 0.773921 17.5717 0.66256 17.5222C0.5512 17.4727 0.452213 17.4108 0.365599 17.3242C0.278985 17.2376 0.217118 17.1386 0.167624 17.0272C0.118131 16.9159 0.0933838 16.7798 0.0933838 16.656V8.15551C0.0933838 8.0194 0.118131 7.89567 0.167624 7.78431C0.217118 7.67295 0.278985 7.56159 0.365599 7.47497C0.452213 7.38836 0.5512 7.32649 0.66256 7.277C0.773921 7.22751 0.910029 7.20276 1.03376 7.20276H7.3442C7.57929 7.20276 7.82676 7.23988 8.0866 7.32649C8.34645 7.41311 8.60629 7.53684 8.82901 7.72244C9.05173 7.90804 9.2497 8.14314 9.39818 8.42773C9.54667 8.71231 9.62091 9.07114 9.62091 9.49184V9.85067C9.62091 10.1847 9.57141 10.5436 9.46005 10.9272C9.34869 11.3107 9.17546 11.6696 8.928 12.016C9.13834 12.1521 9.33632 12.3006 9.52192 12.4862C9.70752 12.6718 9.86837 12.8822 10.0169 13.1296C10.1653 13.3771 10.2643 13.6493 10.3509 13.9463C10.4376 14.2432 10.4747 14.5897 10.4747 14.9485V15.3073V15.3197ZM8.59391 14.9609C8.59391 14.7134 8.55679 14.4907 8.48255 14.2927C8.40831 14.0947 8.29695 13.9339 8.16084 13.7854C8.02474 13.6369 7.85151 13.5379 7.65353 13.4637C7.45556 13.3895 7.23284 13.3523 6.98537 13.3523H2.71655V11.4468H6.11923C6.3667 11.4468 6.58942 11.4097 6.7874 11.3355C6.98537 11.2612 7.1586 11.1499 7.29471 11.0138C7.43081 10.8777 7.54217 10.7044 7.61641 10.5065C7.69065 10.3085 7.72777 10.0858 7.72777 9.83829V9.47947C7.72777 9.20725 7.59167 9.07114 7.33183 9.07114H1.96177V15.728H8.18559C8.18559 15.728 8.25983 15.728 8.30933 15.728C8.35882 15.728 8.39594 15.7033 8.44543 15.6785C8.49493 15.6538 8.51967 15.6167 8.54442 15.5548C8.56917 15.4929 8.59391 15.4187 8.59391 15.3197V14.9733V14.9609Z" fill="#1D1D1B"/>
<rect x="47.2533" y="15.5584" width="2.05588" height="2.05588" fill="#0303FF"/>
<path d="M22.5016 10.7044C22.5016 11.1375 22.4521 11.5211 22.3408 11.8552C22.2294 12.1892 22.0933 12.4862 21.9077 12.746C21.7221 13.0059 21.5117 13.2286 21.2766 13.4142C21.0416 13.5998 20.7941 13.7483 20.5342 13.872C20.2744 13.9958 20.0146 14.0824 19.7547 14.1319C19.4949 14.1814 19.2474 14.2061 19.0123 14.2061L22.9471 17.6088H20.0269L16.0922 14.2061H14.7311V12.3253H18.9999C19.235 12.3006 19.4578 12.2511 19.6434 12.1769C19.829 12.1026 20.0022 11.9913 20.1507 11.8552C20.2991 11.7191 20.3981 11.5582 20.4847 11.3602C20.5714 11.1622 20.5961 10.9519 20.5961 10.7044V9.51659C20.5961 9.40523 20.5837 9.33098 20.559 9.26912C20.5342 9.20725 20.4971 9.17013 20.46 9.14538C20.4229 9.12064 20.3734 9.10826 20.3239 9.09589C20.2744 9.08352 20.2373 9.09589 20.2002 9.09589H13.9763V17.6088H12.0956V8.15551C12.0956 8.0194 12.1203 7.89567 12.1698 7.78431C12.2193 7.67295 12.2812 7.56159 12.3678 7.47497C12.4544 7.38836 12.5534 7.32649 12.6648 7.277C12.7761 7.22751 12.9122 7.20276 13.036 7.20276H20.1878C20.6085 7.20276 20.9673 7.277 21.2519 7.42548C21.5365 7.57396 21.7716 7.77194 21.9572 7.99466C22.1428 8.21738 22.2665 8.47722 22.3531 8.73706C22.4397 8.9969 22.4769 9.25674 22.4769 9.47947V10.6797L22.5016 10.7044Z" fill="#1D1D1B"/>
<path d="M34.776 16.8045C34.776 16.9406 34.7513 17.0644 34.7018 17.1757C34.6523 17.2871 34.578 17.3861 34.5038 17.4727C34.4296 17.5593 34.3182 17.6212 34.2068 17.6707C34.0955 17.7202 33.9717 17.7449 33.8356 17.7449C33.7243 17.7449 33.6005 17.7202 33.4892 17.683C33.3778 17.6459 33.2665 17.5717 33.1798 17.4727L26.2879 10.2838V17.6088H24.4071V8.01942C24.4071 7.82144 24.4566 7.64822 24.568 7.49973C24.6793 7.35125 24.8154 7.22752 24.9887 7.15328C25.1495 7.06667 25.3351 7.05429 25.5207 7.07904C25.7063 7.10379 25.8672 7.20277 26.0033 7.33888L32.8953 14.5278V7.21515H34.776V16.8045Z" fill="#1D1D1B"/>
<path d="M45.7141 14.9609C45.7141 15.3321 45.6523 15.6909 45.5162 16.0126C45.3801 16.3343 45.2068 16.6189 44.9717 16.854C44.7366 17.0891 44.452 17.2747 44.1303 17.4108C43.8086 17.5469 43.4498 17.6088 43.0662 17.6088H36.1619V15.7281H43.0662C43.3013 15.7281 43.4745 15.6662 43.6107 15.5301C43.7468 15.394 43.8086 15.2084 43.8086 14.9733V7.21515H45.7141V14.9609Z" fill="#1D1D1B"/>
<path d="M61.7551 13.2534C61.7551 13.8844 61.6437 14.4659 61.421 14.998C61.1983 15.5301 60.9013 15.9879 60.5054 16.3715C60.1094 16.755 59.664 17.052 59.1319 17.2747C58.5998 17.4974 58.0183 17.5964 57.3996 17.5964H52.3142C52.1781 17.5964 52.0543 17.5717 51.943 17.5222C51.8316 17.4727 51.7326 17.4108 51.646 17.3242C51.5594 17.2376 51.4975 17.1386 51.448 17.0272C51.3985 16.9159 51.3738 16.7798 51.3738 16.656V8.15551C51.3738 8.0194 51.3985 7.89567 51.448 7.78431C51.4975 7.67295 51.5594 7.56159 51.646 7.47497C51.7326 7.38836 51.8316 7.32649 51.943 7.277C52.0543 7.22751 52.1904 7.20276 52.3142 7.20276H57.3996C58.0183 7.20276 58.5998 7.31412 59.1319 7.52447C59.664 7.73482 60.1218 8.04415 60.5054 8.42773C60.8889 8.8113 61.1983 9.26912 61.421 9.80117C61.6437 10.3332 61.7551 10.9148 61.7551 11.5458V13.241V13.2534ZM59.8743 11.5582C59.8743 11.187 59.8124 10.8529 59.7011 10.556C59.5897 10.259 59.4165 9.98678 59.1938 9.77643C58.971 9.56608 58.7112 9.39285 58.4143 9.28149C58.1173 9.17013 57.7832 9.10826 57.412 9.10826H53.2545V15.728H57.412C57.7832 15.728 58.1173 15.6662 58.4143 15.5548C58.7112 15.4434 58.971 15.2702 59.1938 15.0599C59.4165 14.8495 59.5773 14.5897 59.7011 14.2803C59.8248 13.971 59.8743 13.6369 59.8743 13.2657V11.5706V11.5582Z" fill="#1D1D1B"/>
<path d="M73.0025 17.6088H66.1971C65.9373 17.6088 65.6527 17.5593 65.3434 17.4727C65.034 17.3861 64.7495 17.2252 64.4896 17.0149C64.2298 16.8045 64.007 16.5323 63.8338 16.1982C63.6606 15.8641 63.574 15.4558 63.574 14.9609V8.15551C63.574 8.0194 63.5987 7.89567 63.6482 7.78431C63.6977 7.67295 63.7596 7.56159 63.8462 7.47497C63.9328 7.38836 64.0318 7.32649 64.1432 7.277C64.2545 7.22751 64.3906 7.20276 64.5144 7.20276H73.0025V9.09589H65.4424V14.9609C65.4424 15.2084 65.5042 15.394 65.6403 15.5301C65.7764 15.6662 65.962 15.728 66.2095 15.728H72.9901V17.6088H73.0025ZM72.1487 13.3647H66.1971V11.4592H72.1487V13.3647Z" fill="#1D1D1B"/>
<path d="M85.2273 7.21509L80.3027 17.2375C80.2285 17.386 80.1047 17.5221 79.9563 17.6088C79.8078 17.6954 79.6345 17.7449 79.4489 17.7449C79.2633 17.7449 79.1025 17.6954 78.954 17.6088C78.8055 17.5221 78.6818 17.386 78.6076 17.2375L73.6953 7.21509H75.8112L79.4613 14.701L83.1239 7.21509H85.2273Z" fill="#1D1D1B"/>
<path d="M96.0493 5.86328L87.6996 19.0968H85.1317L93.4814 5.86328H96.0493Z" fill="#0303FF"/>
<path opacity="0.5" d="M101.91 7.54429L106.431 11.5931C106.557 11.7034 106.652 11.8294 106.715 11.987C106.778 12.1445 106.825 12.302 106.825 12.4753C106.825 12.6486 106.794 12.8219 106.715 12.9795C106.636 13.137 106.542 13.263 106.416 13.3733L101.941 17.2804H98.4912L103.989 12.4596L98.4912 7.52853H101.91V7.54429Z" fill="#04E3D4"/>
</g>
<defs>
<clipPath id="clip0_160_5498">
<rect width="107.131" height="41.0762" fill="white" transform="translate(0.0933838 0.961884)"/>
</clipPath>
</defs>
</svg>
