<?xml version="1.0" encoding="utf-8"?>
<!-- Generator: Adobe Illustrator 27.0.0, SVG Export Plug-In . SVG Version: 6.00 Build 0)  -->
<svg version="1.1" id="Warstwa_1" xmlns="http://www.w3.org/2000/svg" xmlns:xlink="http://www.w3.org/1999/xlink" x="0px" y="0px"
	 viewBox="0 0 518 518" style="enable-background:new 0 0 518 518;" xml:space="preserve">
<style type="text/css">
	.st0{fill:#FFFFFF;}
	.st1{fill:#F2F2F2;}
</style>
<path class="st0" d="M399.3,455.7l-70.5-70.2l-1,0.2V385l-150-148.3l37-35.7L193,76.2L90,204c-17.5,17.7-20.9,46.6-8.2,67.8
	l64.4,106.9c9.8,16.4,25.3,26.9,46.9,26.2c45.8-1.6,65.9-1.6,65.9-1.6L399.3,455.7L399.3,455.7L399.3,455.7z"/>
<path class="st1" d="M434.2,259.1c10.1-20.9,13.8-39.3,3.8-57.7l-14.3-26.2l-7.4-13.5l-2.9-5.2l-0.3,0.3l-38.8-67.3
	c-9.8-17-28-27.4-47.6-27.2l-34,1l-101.5,0.3c-19.2,0.1-36.9,10.3-46.6,26.9L82.9,212.9L193.3,75.5l144.8,159.3l-25.9,26.3
	l15.5,124.6l0.2-0.3v0.4h-0.2l0.3,0.3l12.1,11.8l58.4,57.1c2.5,2.4,6.4-0.5,4.8-3.4l-36.1-71.1"/>
</svg>
